<svg xmlns="http://www.w3.org/2000/svg" xmlns:xlink="http://www.w3.org/1999/xlink" width="500" zoomAndPan="magnify" viewBox="0 0 375 374.999991" height="500" preserveAspectRatio="xMidYMid meet" version="1.2"><defs><clipPath id="47c2d9dfb6"><path d="M 329.140625 49.613281 L 336.453125 49.613281 L 336.453125 56.925781 L 329.140625 56.925781 Z M 329.140625 49.613281 "/></clipPath></defs><g id="991eb97923"><g clip-rule="nonzero" clip-path="url(#47c2d9dfb6)"><path style=" stroke:none;fill-rule:nonzero;fill:#af4c0f;fill-opacity:1;" d="M 329.140625 49.613281 L 336.453125 49.613281 L 336.453125 56.925781 L 329.140625 56.925781 Z M 329.140625 49.613281 "/></g><g style="fill:#ffffff;fill-opacity:1;"><g transform="translate(19.271488, 55.499996)"><path style="stroke:none" d="M 6.5 0 L 6.5 -16.84375 L 0.8125 -16.84375 L 0.8125 -19.828125 L 15.78125 -19.828125 L 15.78125 -16.84375 L 10.0625 -16.84375 L 10.0625 0 Z M 6.5 0 "/></g></g><g style="fill:#ffffff;fill-opacity:1;"><g transform="translate(35.84886, 55.499996)"><path style="stroke:none" d="M 2.515625 0 L 2.515625 -19.828125 L 6.0625 -19.828125 L 6.0625 -11.859375 L 14.0625 -11.859375 L 14.0625 -19.828125 L 17.578125 -19.828125 L 17.578125 0 L 14.0625 0 L 14.0625 -8.765625 L 6.0625 -8.765625 L 6.0625 0 Z M 2.515625 0 "/></g></g><g style="fill:#ffffff;fill-opacity:1;"><g transform="translate(55.940209, 55.499996)"><path style="stroke:none" d="M 10.21875 0.375 C 8.5 0.375 6.984375 -0.0390625 5.671875 -0.875 C 4.359375 -1.71875 3.328125 -2.910156 2.578125 -4.453125 C 1.835938 -6.003906 1.46875 -7.847656 1.46875 -9.984375 C 1.46875 -12.128906 1.835938 -13.960938 2.578125 -15.484375 C 3.328125 -17.003906 4.359375 -18.164062 5.671875 -18.96875 C 6.984375 -19.769531 8.5 -20.171875 10.21875 -20.171875 C 11.957031 -20.171875 13.476562 -19.765625 14.78125 -18.953125 C 16.082031 -18.140625 17.101562 -16.976562 17.84375 -15.46875 C 18.59375 -13.957031 18.96875 -12.128906 18.96875 -9.984375 C 18.96875 -7.847656 18.59375 -6.003906 17.84375 -4.453125 C 17.101562 -2.910156 16.082031 -1.71875 14.78125 -0.875 C 13.476562 -0.0390625 11.957031 0.375 10.21875 0.375 Z M 10.21875 -2.703125 C 11.257812 -2.703125 12.160156 -3 12.921875 -3.59375 C 13.691406 -4.195312 14.285156 -5.046875 14.703125 -6.140625 C 15.128906 -7.234375 15.34375 -8.515625 15.34375 -9.984375 C 15.34375 -11.460938 15.128906 -12.734375 14.703125 -13.796875 C 14.285156 -14.867188 13.691406 -15.6875 12.921875 -16.25 C 12.160156 -16.820312 11.257812 -17.109375 10.21875 -17.109375 C 9.1875 -17.109375 8.285156 -16.820312 7.515625 -16.25 C 6.742188 -15.6875 6.148438 -14.867188 5.734375 -13.796875 C 5.328125 -12.734375 5.125 -11.460938 5.125 -9.984375 C 5.125 -8.515625 5.328125 -7.234375 5.734375 -6.140625 C 6.148438 -5.046875 6.742188 -4.195312 7.515625 -3.59375 C 8.285156 -3 9.1875 -2.703125 10.21875 -2.703125 Z M 10.21875 -2.703125 "/></g></g><g style="fill:#ffffff;fill-opacity:1;"><g transform="translate(76.380271, 55.499996)"><path style="stroke:none" d="M 2.515625 0 L 2.515625 -19.828125 L 6.515625 -19.828125 L 10 -10.140625 C 10.21875 -9.535156 10.429688 -8.898438 10.640625 -8.234375 C 10.859375 -7.578125 11.066406 -6.925781 11.265625 -6.28125 L 11.40625 -6.28125 C 11.613281 -6.925781 11.820312 -7.578125 12.03125 -8.234375 C 12.238281 -8.898438 12.441406 -9.535156 12.640625 -10.140625 L 16.0625 -19.828125 L 20.0625 -19.828125 L 20.0625 0 L 16.828125 0 L 16.828125 -9.015625 C 16.828125 -9.640625 16.851562 -10.320312 16.90625 -11.0625 C 16.957031 -11.8125 17.019531 -12.5625 17.09375 -13.3125 C 17.164062 -14.0625 17.226562 -14.738281 17.28125 -15.34375 L 17.171875 -15.34375 L 15.5625 -10.734375 L 12.3125 -1.84375 L 10.1875 -1.84375 L 6.953125 -10.734375 L 5.359375 -15.34375 L 5.265625 -15.34375 C 5.328125 -14.738281 5.390625 -14.0625 5.453125 -13.3125 C 5.515625 -12.5625 5.570312 -11.8125 5.625 -11.0625 C 5.6875 -10.320312 5.71875 -9.640625 5.71875 -9.015625 L 5.71875 0 Z M 2.515625 0 "/></g></g><g style="fill:#ffffff;fill-opacity:1;"><g transform="translate(98.966272, 55.499996)"><path style="stroke:none" d="M -0.046875 0 L 6.40625 -19.828125 L 10.546875 -19.828125 L 16.984375 0 L 13.25 0 L 10.25 -10.546875 C 9.925781 -11.597656 9.617188 -12.675781 9.328125 -13.78125 C 9.046875 -14.894531 8.753906 -15.988281 8.453125 -17.0625 L 8.34375 -17.0625 C 8.070312 -15.96875 7.785156 -14.867188 7.484375 -13.765625 C 7.179688 -12.671875 6.878906 -11.597656 6.578125 -10.546875 L 3.546875 0 Z M 3.75 -5.359375 L 3.75 -8.125 L 13.125 -8.125 L 13.125 -5.359375 Z M 3.75 -5.359375 "/></g></g><g style="fill:#ffffff;fill-opacity:1;"><g transform="translate(115.919194, 55.499996)"><path style="stroke:none" d="M 8.3125 0.375 C 6.957031 0.375 5.660156 0.117188 4.421875 -0.390625 C 3.191406 -0.898438 2.113281 -1.609375 1.1875 -2.515625 L 3.21875 -4.96875 C 3.9375 -4.28125 4.742188 -3.726562 5.640625 -3.3125 C 6.546875 -2.90625 7.457031 -2.703125 8.375 -2.703125 C 9.5 -2.703125 10.347656 -2.9375 10.921875 -3.40625 C 11.503906 -3.875 11.796875 -4.484375 11.796875 -5.234375 C 11.796875 -5.785156 11.660156 -6.226562 11.390625 -6.5625 C 11.128906 -6.90625 10.769531 -7.195312 10.3125 -7.4375 C 9.851562 -7.6875 9.332031 -7.9375 8.75 -8.1875 L 6.03125 -9.34375 C 5.394531 -9.601562 4.765625 -9.957031 4.140625 -10.40625 C 3.523438 -10.851562 3.015625 -11.421875 2.609375 -12.109375 C 2.210938 -12.796875 2.015625 -13.613281 2.015625 -14.5625 C 2.015625 -15.632812 2.300781 -16.59375 2.875 -17.4375 C 3.445312 -18.28125 4.238281 -18.945312 5.25 -19.4375 C 6.257812 -19.925781 7.40625 -20.171875 8.6875 -20.171875 C 9.851562 -20.171875 10.972656 -19.945312 12.046875 -19.5 C 13.117188 -19.050781 14.039062 -18.4375 14.8125 -17.65625 L 12.984375 -15.40625 C 12.359375 -15.9375 11.703125 -16.351562 11.015625 -16.65625 C 10.328125 -16.957031 9.550781 -17.109375 8.6875 -17.109375 C 7.757812 -17.109375 7.019531 -16.898438 6.46875 -16.484375 C 5.914062 -16.078125 5.640625 -15.519531 5.640625 -14.8125 C 5.640625 -14.289062 5.785156 -13.859375 6.078125 -13.515625 C 6.367188 -13.179688 6.75 -12.898438 7.21875 -12.671875 C 7.695312 -12.453125 8.210938 -12.222656 8.765625 -11.984375 L 11.421875 -10.890625 C 12.210938 -10.566406 12.90625 -10.164062 13.5 -9.6875 C 14.101562 -9.21875 14.570312 -8.644531 14.90625 -7.96875 C 15.25 -7.300781 15.421875 -6.488281 15.421875 -5.53125 C 15.421875 -4.457031 15.140625 -3.472656 14.578125 -2.578125 C 14.015625 -1.679688 13.203125 -0.960938 12.140625 -0.421875 C 11.078125 0.109375 9.800781 0.375 8.3125 0.375 Z M 8.3125 0.375 "/></g></g><g style="fill:#ffffff;fill-opacity:1;"><g transform="translate(132.442928, 55.499996)"><path style="stroke:none" d=""/></g></g><g style="fill:#ffffff;fill-opacity:1;"><g transform="translate(138.505206, 55.499996)"><path style="stroke:none" d="M 10.40625 0.375 C 9.15625 0.375 7.992188 0.148438 6.921875 -0.296875 C 5.847656 -0.742188 4.898438 -1.40625 4.078125 -2.28125 C 3.253906 -3.15625 2.613281 -4.226562 2.15625 -5.5 C 1.695312 -6.769531 1.46875 -8.21875 1.46875 -9.84375 C 1.46875 -11.46875 1.703125 -12.914062 2.171875 -14.1875 C 2.648438 -15.457031 3.304688 -16.539062 4.140625 -17.4375 C 4.972656 -18.332031 5.9375 -19.007812 7.03125 -19.46875 C 8.132812 -19.9375 9.3125 -20.171875 10.5625 -20.171875 C 11.820312 -20.171875 12.929688 -19.914062 13.890625 -19.40625 C 14.859375 -18.894531 15.65625 -18.3125 16.28125 -17.65625 L 14.40625 -15.40625 C 13.882812 -15.90625 13.316406 -16.3125 12.703125 -16.625 C 12.097656 -16.945312 11.40625 -17.109375 10.625 -17.109375 C 9.570312 -17.109375 8.625 -16.816406 7.78125 -16.234375 C 6.9375 -15.660156 6.28125 -14.84375 5.8125 -13.78125 C 5.351562 -12.71875 5.125 -11.441406 5.125 -9.953125 C 5.125 -8.453125 5.347656 -7.160156 5.796875 -6.078125 C 6.242188 -4.992188 6.875 -4.160156 7.6875 -3.578125 C 8.5 -2.992188 9.453125 -2.703125 10.546875 -2.703125 C 11.421875 -2.703125 12.207031 -2.890625 12.90625 -3.265625 C 13.601562 -3.648438 14.226562 -4.144531 14.78125 -4.75 L 16.65625 -2.515625 C 15.851562 -1.566406 14.929688 -0.847656 13.890625 -0.359375 C 12.859375 0.128906 11.695312 0.375 10.40625 0.375 Z M 10.40625 0.375 "/></g></g><g style="fill:#ffffff;fill-opacity:1;"><g transform="translate(155.484884, 55.499996)"><path style="stroke:none" d="M 5.828125 0 L 5.828125 -7.375 L -0.140625 -19.828125 L 3.65625 -19.828125 L 5.765625 -14.75 C 6.066406 -14.019531 6.359375 -13.300781 6.640625 -12.59375 C 6.929688 -11.882812 7.238281 -11.144531 7.5625 -10.375 L 7.671875 -10.375 C 7.992188 -11.144531 8.300781 -11.882812 8.59375 -12.59375 C 8.894531 -13.300781 9.195312 -14.019531 9.5 -14.75 L 11.640625 -19.828125 L 15.3125 -19.828125 L 9.359375 -7.375 L 9.359375 0 Z M 5.828125 0 "/></g></g><g style="fill:#ffffff;fill-opacity:1;"><g transform="translate(170.050374, 55.499996)"><path style="stroke:none" d="M 6.5 0 L 6.5 -16.84375 L 0.8125 -16.84375 L 0.8125 -19.828125 L 15.78125 -19.828125 L 15.78125 -16.84375 L 10.0625 -16.84375 L 10.0625 0 Z M 6.5 0 "/></g></g><g style="fill:#ffffff;fill-opacity:1;"><g transform="translate(186.627746, 55.499996)"><path style="stroke:none" d="M 2.515625 0 L 2.515625 -19.828125 L 9.203125 -19.828125 C 10.597656 -19.828125 11.84375 -19.640625 12.9375 -19.265625 C 14.039062 -18.898438 14.910156 -18.289062 15.546875 -17.4375 C 16.179688 -16.582031 16.5 -15.421875 16.5 -13.953125 C 16.5 -12.515625 16.179688 -11.335938 15.546875 -10.421875 C 14.910156 -9.503906 14.039062 -8.820312 12.9375 -8.375 C 11.84375 -7.9375 10.597656 -7.71875 9.203125 -7.71875 L 6.0625 -7.71875 L 6.0625 0 Z M 6.0625 -10.546875 L 8.828125 -10.546875 C 10.179688 -10.546875 11.21875 -10.832031 11.9375 -11.40625 C 12.664062 -11.976562 13.03125 -12.828125 13.03125 -13.953125 C 13.03125 -15.078125 12.664062 -15.863281 11.9375 -16.3125 C 11.21875 -16.757812 10.179688 -16.984375 8.828125 -16.984375 L 6.0625 -16.984375 Z M 13.3125 0 L 8.53125 -8.671875 L 11.078125 -10.8125 L 17.28125 0 Z M 13.3125 0 "/></g></g><g style="fill:#ffffff;fill-opacity:1;"><g transform="translate(204.197573, 55.499996)"><path style="stroke:none" d="M 5.828125 0 L 5.828125 -7.375 L -0.140625 -19.828125 L 3.65625 -19.828125 L 5.765625 -14.75 C 6.066406 -14.019531 6.359375 -13.300781 6.640625 -12.59375 C 6.929688 -11.882812 7.238281 -11.144531 7.5625 -10.375 L 7.671875 -10.375 C 7.992188 -11.144531 8.300781 -11.882812 8.59375 -12.59375 C 8.894531 -13.300781 9.195312 -14.019531 9.5 -14.75 L 11.640625 -19.828125 L 15.3125 -19.828125 L 9.359375 -7.375 L 9.359375 0 Z M 5.828125 0 "/></g></g><g style="fill:#ffffff;fill-opacity:1;"><g transform="translate(219.380094, 55.499996)"><path style="stroke:none" d="M 2.515625 0 L 2.515625 -19.828125 L 6.140625 -19.828125 L 12.28125 -8.71875 L 14.359375 -4.484375 L 14.484375 -4.484375 C 14.378906 -5.503906 14.269531 -6.609375 14.15625 -7.796875 C 14.050781 -8.984375 14 -10.128906 14 -11.234375 L 14 -19.828125 L 17.359375 -19.828125 L 17.359375 0 L 13.734375 0 L 7.625 -11.140625 L 5.546875 -15.3125 L 5.453125 -15.3125 C 5.515625 -14.28125 5.597656 -13.1875 5.703125 -12.03125 C 5.816406 -10.875 5.875 -9.742188 5.875 -8.640625 L 5.875 0 Z M 2.515625 0 "/></g></g><g style="fill:#ffffff;fill-opacity:1;"><g transform="translate(239.283679, 55.499996)"><path style="stroke:none" d="M 10.21875 0.375 C 8.5 0.375 6.984375 -0.0390625 5.671875 -0.875 C 4.359375 -1.71875 3.328125 -2.910156 2.578125 -4.453125 C 1.835938 -6.003906 1.46875 -7.847656 1.46875 -9.984375 C 1.46875 -12.128906 1.835938 -13.960938 2.578125 -15.484375 C 3.328125 -17.003906 4.359375 -18.164062 5.671875 -18.96875 C 6.984375 -19.769531 8.5 -20.171875 10.21875 -20.171875 C 11.957031 -20.171875 13.476562 -19.765625 14.78125 -18.953125 C 16.082031 -18.140625 17.101562 -16.976562 17.84375 -15.46875 C 18.59375 -13.957031 18.96875 -12.128906 18.96875 -9.984375 C 18.96875 -7.847656 18.59375 -6.003906 17.84375 -4.453125 C 17.101562 -2.910156 16.082031 -1.71875 14.78125 -0.875 C 13.476562 -0.0390625 11.957031 0.375 10.21875 0.375 Z M 10.21875 -2.703125 C 11.257812 -2.703125 12.160156 -3 12.921875 -3.59375 C 13.691406 -4.195312 14.285156 -5.046875 14.703125 -6.140625 C 15.128906 -7.234375 15.34375 -8.515625 15.34375 -9.984375 C 15.34375 -11.460938 15.128906 -12.734375 14.703125 -13.796875 C 14.285156 -14.867188 13.691406 -15.6875 12.921875 -16.25 C 12.160156 -16.820312 11.257812 -17.109375 10.21875 -17.109375 C 9.1875 -17.109375 8.285156 -16.820312 7.515625 -16.25 C 6.742188 -15.6875 6.148438 -14.867188 5.734375 -13.796875 C 5.328125 -12.734375 5.125 -11.460938 5.125 -9.984375 C 5.125 -8.515625 5.328125 -7.234375 5.734375 -6.140625 C 6.148438 -5.046875 6.742188 -4.195312 7.515625 -3.59375 C 8.285156 -3 9.1875 -2.703125 10.21875 -2.703125 Z M 10.21875 -2.703125 "/></g></g><g style="fill:#ffffff;fill-opacity:1;"><g transform="translate(259.509119, 55.499996)"><path style="stroke:none" d="M 4.484375 0 L 0.5625 -19.828125 L 4.1875 -19.828125 L 5.875 -9.8125 C 6.050781 -8.78125 6.222656 -7.734375 6.390625 -6.671875 C 6.566406 -5.617188 6.734375 -4.554688 6.890625 -3.484375 L 7 -3.484375 C 7.21875 -4.554688 7.429688 -5.617188 7.640625 -6.671875 C 7.859375 -7.734375 8.078125 -8.78125 8.296875 -9.8125 L 10.703125 -19.828125 L 13.796875 -19.828125 L 16.203125 -9.8125 C 16.429688 -8.800781 16.648438 -7.757812 16.859375 -6.6875 C 17.066406 -5.625 17.285156 -4.554688 17.515625 -3.484375 L 17.65625 -3.484375 C 17.800781 -4.554688 17.953125 -5.617188 18.109375 -6.671875 C 18.265625 -7.734375 18.414062 -8.78125 18.5625 -9.8125 L 20.3125 -19.828125 L 23.6875 -19.828125 L 19.90625 0 L 15.5 0 L 13.0625 -10.40625 C 12.90625 -11.175781 12.75 -11.9375 12.59375 -12.6875 C 12.445312 -13.4375 12.3125 -14.195312 12.1875 -14.96875 L 12.078125 -14.96875 C 11.953125 -14.195312 11.804688 -13.4375 11.640625 -12.6875 C 11.484375 -11.9375 11.332031 -11.175781 11.1875 -10.40625 L 8.796875 0 Z M 4.484375 0 "/></g></g><g style="fill:#ffffff;fill-opacity:1;"><g transform="translate(283.758232, 55.499996)"><path style="stroke:none" d="M 2.515625 0 L 2.515625 -19.828125 L 6.0625 -19.828125 L 6.0625 0 Z M 2.515625 0 "/></g></g><g style="fill:#ffffff;fill-opacity:1;"><g transform="translate(292.315162, 55.499996)"><path style="stroke:none" d="M 10.40625 0.375 C 9.15625 0.375 7.992188 0.148438 6.921875 -0.296875 C 5.847656 -0.742188 4.898438 -1.40625 4.078125 -2.28125 C 3.253906 -3.15625 2.613281 -4.226562 2.15625 -5.5 C 1.695312 -6.769531 1.46875 -8.21875 1.46875 -9.84375 C 1.46875 -11.46875 1.703125 -12.914062 2.171875 -14.1875 C 2.648438 -15.457031 3.304688 -16.539062 4.140625 -17.4375 C 4.972656 -18.332031 5.9375 -19.007812 7.03125 -19.46875 C 8.132812 -19.9375 9.3125 -20.171875 10.5625 -20.171875 C 11.820312 -20.171875 12.929688 -19.914062 13.890625 -19.40625 C 14.859375 -18.894531 15.65625 -18.3125 16.28125 -17.65625 L 14.40625 -15.40625 C 13.882812 -15.90625 13.316406 -16.3125 12.703125 -16.625 C 12.097656 -16.945312 11.40625 -17.109375 10.625 -17.109375 C 9.570312 -17.109375 8.625 -16.816406 7.78125 -16.234375 C 6.9375 -15.660156 6.28125 -14.84375 5.8125 -13.78125 C 5.351562 -12.71875 5.125 -11.441406 5.125 -9.953125 C 5.125 -8.453125 5.347656 -7.160156 5.796875 -6.078125 C 6.242188 -4.992188 6.875 -4.160156 7.6875 -3.578125 C 8.5 -2.992188 9.453125 -2.703125 10.546875 -2.703125 C 11.421875 -2.703125 12.207031 -2.890625 12.90625 -3.265625 C 13.601562 -3.648438 14.226562 -4.144531 14.78125 -4.75 L 16.65625 -2.515625 C 15.851562 -1.566406 14.929688 -0.847656 13.890625 -0.359375 C 12.859375 0.128906 11.695312 0.375 10.40625 0.375 Z M 10.40625 0.375 "/></g></g><g style="fill:#ffffff;fill-opacity:1;"><g transform="translate(309.348479, 55.499996)"><path style="stroke:none" d="M 1.203125 0 L 1.203125 -2.140625 L 10.78125 -16.84375 L 2.09375 -16.84375 L 2.09375 -19.828125 L 15.125 -19.828125 L 15.125 -17.671875 L 5.578125 -2.984375 L 15.234375 -2.984375 L 15.234375 0 Z M 1.203125 0 "/></g></g></g></svg>